<?xml version="1.0" encoding="UTF-8"?>
<svg width="21px" height="20px" viewBox="0 0 21 20" version="1.1" xmlns="http://www.w3.org/2000/svg" xmlns:xlink="http://www.w3.org/1999/xlink">
    <!-- Generator: Sketch 52.5 (67469) - http://www.bohemiancoding.com/sketch -->
    <title>Fill 1 Copy 2</title>
    <desc>Created with Sketch.</desc>
    <g id="---账户管理---" stroke="none" stroke-width="1" fill="none" fill-rule="evenodd">
        <g id="1-3-6账户管理--新增介质绑定--读卡" transform="translate(-696.000000, -249.000000)" fill="#6C7B8A">
            <g id="分组-31" transform="translate(1.000000, 0.000000)">
                <g id="分组-30" transform="translate(314.000000, 231.000000)">
                    <g id="分组-27">
                        <path d="M392.978254,27.9893505 L400.894429,20.1787402 C401.383119,19.6965736 401.364822,18.8963036 400.853844,18.390959 C400.341534,17.8867758 399.530566,17.8686223 399.04185,18.3495266 L391.125599,26.1613993 L383.208017,18.3495266 C382.719327,17.8673347 381.908333,17.8867758 381.397329,18.390959 C380.885045,18.8963036 380.865443,19.6952859 381.354159,20.1787402 L389.271613,27.9893505 L381.355464,35.7998598 C380.866748,36.2807388 380.88635,37.0809078 381.397329,37.5863534 C381.909638,38.0918242 382.719327,38.1099777 383.208017,37.6277858 L391.125599,29.8184632 L399.04185,37.6277858 C399.530566,38.1099777 400.341534,38.0918242 400.853844,37.587641 C401.366127,37.0835588 401.383119,36.2820265 400.895811,35.7998598 L392.978254,27.9893505 Z" id="Fill-1-Copy-2"></path>
                    </g>
                </g>
            </g>
        </g>
    </g>
</svg>