<?xml version="1.0" encoding="UTF-8"?>
<svg width="21px" height="20px" viewBox="0 0 21 20" version="1.1" xmlns="http://www.w3.org/2000/svg" xmlns:xlink="http://www.w3.org/1999/xlink">
    <!-- Generator: Sketch 52.5 (67469) - http://www.bohemiancoding.com/sketch -->
    <title>Fill 1 Copy</title>
    <desc>Created with Sketch.</desc>
    <g id="---账户管理---" stroke="none" stroke-width="1" fill="none" fill-rule="evenodd">
        <g id="1-3-7账户管理--修改介质绑定" transform="translate(-682.000000, -178.000000)" fill="#6C7B8A">
            <g id="分组-70">
                <g id="分组-67" transform="translate(301.000000, 160.000000)">
                    <path d="M393.482237,27.9893505 L401.398412,20.1787402 C401.887102,19.6965736 401.868805,18.8963036 401.357827,18.390959 C400.845518,17.8867758 400.034549,17.8686223 399.545834,18.3495266 L391.629582,26.1613993 L383.712,18.3495266 C383.22331,17.8673347 382.412316,17.8867758 381.901312,18.390959 C381.389028,18.8963036 381.369426,19.6952859 381.858142,20.1787402 L389.775596,27.9893505 L381.859447,35.7998598 C381.370731,36.2807388 381.390333,37.0809078 381.901312,37.5863534 C382.413621,38.0918242 383.22331,38.1099777 383.712,37.6277858 L391.629582,29.8184632 L399.545834,37.6277858 C400.034549,38.1099777 400.845518,38.0918242 401.357827,37.587641 C401.87011,37.0835588 401.887102,36.2820265 401.399794,35.7998598 L393.482237,27.9893505 Z" id="Fill-1-Copy"></path>
                </g>
            </g>
        </g>
    </g>
</svg>