<?xml version="1.0" encoding="UTF-8"?>
<svg width="21px" height="20px" viewBox="0 0 21 20" version="1.1" xmlns="http://www.w3.org/2000/svg" xmlns:xlink="http://www.w3.org/1999/xlink">
    <!-- Generator: Sketch 52.5 (67469) - http://www.bohemiancoding.com/sketch -->
    <title>Fill 1</title>
    <desc>Created with Sketch.</desc>
    <g id="---账户管理---" stroke="none" stroke-width="1" fill="none" fill-rule="evenodd">
        <g id="1-3-4账户管理--充值" transform="translate(-683.000000, -171.000000)" fill="#6C7B8A">
            <g id="分组-64">
                <path d="M694.978254,180.989351 L702.894429,173.17874 C703.383119,172.696574 703.364822,171.896304 702.853844,171.390959 C702.341534,170.886776 701.530566,170.868622 701.04185,171.349527 L693.125599,179.161399 L685.208017,171.349527 C684.719327,170.867335 683.908333,170.886776 683.397329,171.390959 C682.885045,171.896304 682.865443,172.695286 683.354159,173.17874 L691.271613,180.989351 L683.355464,188.79986 C682.866748,189.280739 682.88635,190.080908 683.397329,190.586353 C683.909638,191.091824 684.719327,191.109978 685.208017,190.627786 L693.125599,182.818463 L701.04185,190.627786 C701.530566,191.109978 702.341534,191.091824 702.853844,190.587641 C703.366127,190.083559 703.383119,189.282026 702.895811,188.79986 L694.978254,180.989351 Z" id="Fill-1"></path>
            </g>
        </g>
    </g>
</svg>