<?xml version="1.0" encoding="UTF-8"?>
<svg width="30px" height="16px" viewBox="0 0 30 16" version="1.1" xmlns="http://www.w3.org/2000/svg" xmlns:xlink="http://www.w3.org/1999/xlink">
    <!-- Generator: Sketch 52.5 (67469) - http://www.bohemiancoding.com/sketch -->
    <title>云支付</title>
    <desc>Created with Sketch.</desc>
    <g id="---账户管理---" stroke="none" stroke-width="1" fill="none" fill-rule="evenodd">
        <g id="1-3-4账户管理--充值" transform="translate(-436.000000, -525.000000)" fill="#1A5C97" fill-rule="nonzero">
            <g id="分组-64">
                <g id="tubiao-" transform="translate(436.000000, 525.000000)">
                    <path d="M14.8348283,5.77230674 C14.9502744,4.61784539 14.3153207,3.75199939 13.0454132,3.98289164 C11.8332288,4.09833777 10.7364905,5.6568606 10.7942136,7.04221422 C10.8519367,7.73489103 11.3714443,8.42756784 12.1795672,8.48529091 C13.5649208,8.48529091 14.7193822,7.04221422 14.8348283,5.77230674 Z M18.1827662,13.5071978 C18.1827662,13.5071978 18.1827662,13.5649208 18.2404893,13.5649208 C18.4713816,13.73809 18.875443,13.5649208 19.0486122,13.4494747 L19.1063353,12.9876902 C18.5868277,13.0454132 18.1827662,13.0454132 18.1827662,13.5071978 Z M16.3933511,11.0828289 L16.1047358,12.1218442 C17.143751,12.4681826 17.6055355,10.8519367 16.3933511,11.0828289 Z" id="形状"></path>
                    <path d="M24.6477498,5.25279914 C24.4745806,5.25279914 24.1859652,5.3105222 24.012796,5.3105222 C22.8006116,3.98289166 21.1266427,3.17476871 19.2217814,3.17476871 L18.7022738,3.17476871 C17.6055355,1.32763054 15.5275051,0 13.1608594,0 C9.87064451,0 7.27310649,2.36664577 6.75359889,5.36824527 C6.34953741,5.3105222 5.88775287,5.25279914 5.36824527,5.25279914 C2.48209189,5.25279914 5.68434189e-14,7.67716797 5.68434189e-14,10.6210444 C5.68434189e-14,13.680367 2.48209189,15.9892897 5.36824527,15.9892897 L24.5900267,15.9892897 C27.4761801,15.9892897 29.958272,13.5071978 29.958272,10.6210444 C29.958272,7.73489103 27.5916262,5.25279914 24.6477498,5.25279914 Z M22.1656579,7.38855262 C22.1656579,7.50399875 22.0502117,7.67716795 21.9924887,7.73489103 C20.607135,6.98449116 19.9721813,9.63975226 21.7038733,9.06252157 C21.7038733,9.12024464 21.7038733,9.23569078 21.7615964,9.35113691 C21.1843657,9.69747531 20.0876275,9.52430612 19.9144582,9.06252157 C19.3372276,8.08122943 20.8957504,6.86904501 22.1656579,7.38855262 Z M19.5103968,6.34953741 C19.683566,6.34953741 19.8567352,6.46498354 19.8567352,6.69587582 C19.8567352,6.86904503 19.683566,7.04221422 19.5103968,7.04221422 C19.3372276,7.04221422 19.1640584,6.92676809 19.1640584,6.69587582 C19.1640584,6.52270662 19.2795045,6.34953743 19.5103968,6.34953741 Z M18.7022738,9.06252157 C18.81772,8.60073703 18.875443,8.19667556 18.9908892,7.73489103 L19.0486122,7.27310649 L19.683566,7.27310649 L19.3372276,9.58202918 L18.5868277,9.58202918 L18.7022738,9.06252157 Z M16.8551357,9.12024465 C16.9705818,9.17796772 17.2014741,9.06252159 17.3746433,9.00479851 L17.7209817,7.33082956 C17.951874,7.33082956 18.2404893,7.33082956 18.5291046,7.27310649 L18.009597,9.58202918 L17.3169202,9.58202918 L17.3746433,9.40885999 C17.0860279,9.58202919 16.5087973,9.63975226 16.2201819,9.52430612 C16.0470127,9.46658305 16.0470127,9.29341385 16.0470127,9.06252157 L16.0470127,9.00479851 C16.1047358,8.94707545 16.1047358,8.88935238 16.1047358,8.8316293 L16.3933511,7.38855262 L17.143751,7.38855262 C17.086028,7.44627568 17.086028,7.50399875 17.0860279,7.56172183 L16.7396895,8.88935238 L16.7396895,8.94707545 C16.7396895,9.00479851 16.7396895,9.06252157 16.8551357,9.12024465 Z M4.7910146,9.52430612 L5.42596833,10.4478752 L4.84873766,10.7364905 L4.27150699,9.81292145 L4.7910146,9.52430612 Z M3.34793791,14.2575976 C3.34793791,14.0267054 3.40566098,13.73809 3.46338404,13.5071978 L4.04061472,10.8519367 L4.7910146,10.8519367 L3.98289164,14.2575976 L3.34793791,14.2575976 Z M6.06092208,12.5259056 C5.59913754,12.9876902 5.19507606,13.3917516 4.61784539,13.5649208 L4.44467618,13.1031363 C4.50239925,13.1031363 5.25279912,12.5259056 5.42596833,12.3527364 C5.77230673,12.006398 6.29181435,11.4291673 6.34953741,10.9096597 L6.98449116,11.0251059 C6.86904503,11.3714443 6.69587582,11.7177827 6.46498355,11.8909519 C6.63815276,12.1795672 7.50399876,12.9876902 7.4462757,13.0454132 L6.98449116,13.3917516 C6.58042968,13.1608594 6.46498355,12.814521 6.06092208,12.5259056 Z M9.00479851,10.2169829 C9.00479851,10.3901521 8.94707545,10.4478752 8.94707545,10.5633213 L8.42756784,12.814521 C8.42756784,12.9299671 8.42756784,13.1031363 8.36984476,13.2763055 C8.19667556,13.9112593 7.85033716,14.3153207 6.86904501,14.1998746 L6.75359889,13.6226439 C6.92676809,13.6226439 7.21538343,13.680367 7.38855262,13.6226439 C7.50399875,13.6226439 7.56172183,13.4494747 7.56172183,13.4494747 L8.13895249,11.2559981 C8.19667556,11.0828289 8.19667556,10.9096597 8.25439864,10.6787675 L8.3121217,10.5633213 L5.6568606,10.5633213 L5.77230674,9.98609066 L9.06252157,9.98609066 L9.00479851,10.2169829 Z M10.3901521,13.8535362 C10.3901521,13.9689823 10.3324291,14.1998746 10.3324291,14.3730438 L9.69747532,14.3730438 C9.81292145,13.5649208 10.0438137,12.6413518 10.274706,11.8332288 C9.98609066,12.006398 9.92836759,12.0641211 9.52430612,12.1795672 L9.40885999,11.8332288 L9.40885999,11.7755057 C10.2169829,11.140552 10.8519367,10.6210444 11.2559981,9.75519839 L11.7755057,9.98609066 C11.2559981,10.5633213 10.9673828,11.3714443 10.7942136,12.2372903 L10.3901521,13.8535362 Z M11.6600596,11.8332288 L12.2372903,11.7177827 L12.7567979,13.1031363 L12.1795672,13.2185824 L11.6600596,11.8332288 Z M14.3153207,11.3714443 L13.9689823,13.1031363 L13.9689823,13.1608594 C13.73809,14.1998746 13.6226439,14.3153207 12.6413518,14.3153207 L12.3527364,14.3153207 L12.2372903,13.73809 L12.9876902,13.73809 C12.9876902,13.73809 13.2185824,13.73809 13.2763055,13.6226439 C13.2763055,13.5071978 13.3917516,13.1608594 13.3917516,13.1031363 L13.8535362,11.2559981 L11.5446135,11.2559981 L11.6600596,10.6787675 L13.9112592,10.6787675 L14.0267054,10.3324291 C12.4104595,9.52430612 9.69747532,9.40885997 9.52430612,7.33082956 C9.23569078,4.7910146 11.7177827,2.71298416 14.1998746,2.88615337 C15.1811667,2.94387643 16.2201819,3.69427631 16.3933511,4.73329152 C16.5665203,6.98449114 14.9502744,8.42756783 13.5071978,9.00479851 C13.9689823,9.17796772 14.4884899,9.35113691 15.0079975,9.52430612 L14.8348283,9.63975226 L14.4884899,10.6787675 L15.1811667,10.6787675 L15.0657206,11.2559981 L14.4307668,11.2559981 L14.4307668,11.3714443 L14.3153207,11.3714443 Z M15.9892897,12.5836287 L15.6429513,14.0844284 L14.8348283,14.0844284 C15.1234437,12.872244 15.3543359,11.7177827 15.6429513,10.5055983 C16.5665203,10.5633213 17.4900894,10.3901521 17.8941509,10.8519367 C18.4713816,11.7755058 17.2014741,12.872244 15.9892897,12.5836287 Z M18.9331661,14.0267054 C18.5868277,14.1998746 17.7787048,14.3730438 17.5478125,14.0267054 C17.0283049,13.2763055 18.2982124,12.5836287 19.2217814,12.6990748 C19.5103968,11.9486749 18.5868277,12.2372903 18.1827662,12.3527364 C18.1827662,12.1218442 18.1250432,12.1218442 18.1250432,12.006398 C18.7022738,11.7755057 19.9144582,11.4868904 20.0299044,12.1218442 C20.1453505,12.7567979 19.5103968,13.3340286 19.741289,14.1421515 C19.3949506,14.0844284 18.9331661,14.3730438 18.9331661,14.0267054 Z M19.9144582,14.0267054 C19.9144582,13.8535362 20.0876275,13.73809 20.2030736,13.5649208 C20.4916889,13.7958131 21.1843657,13.7958131 21.2420888,13.5649208 C21.0689196,13.1031363 20.3762428,13.2185824 20.3762428,12.6990748 C20.3185197,11.7755057 21.415258,11.3714443 22.2233809,11.7755057 C22.1656579,11.8909519 22.0502117,11.9486749 21.9347656,12.2372903 C21.7615964,12.1795672 21.1266427,11.9486749 21.0689196,12.2950134 C21.2420888,12.7567979 21.8770425,12.6413518 21.9347656,13.1608594 C22.0502117,14.0844284 20.7225812,14.4307668 19.9144582,14.0267054 Z M24.0705191,13.1031363 C24.1859652,14.0267054 22.8583347,14.4307668 22.0502117,13.9689823 C22.1079348,13.7958131 22.223381,13.680367 22.3388271,13.5071978 C22.6274424,13.6226439 23.2046731,13.8535362 23.3778423,13.5071978 C23.2046731,13.0454132 22.5697193,13.1608594 22.5697193,12.6413518 C22.3388271,11.7755057 23.4932884,11.4291673 24.3591344,11.7755057 C24.3014114,11.8909519 24.1859652,12.0641211 24.0705191,12.2372903 C23.8973499,12.1795672 23.2046731,11.9486749 23.2046731,12.2950134 C23.3778423,12.6413518 24.012796,12.6413518 24.0705191,13.1031363 Z M23.7241807,8.36984476 L24.4745806,9.69747532 L23.6087346,9.69747532 L23.0315039,8.65846011 L22.7428886,9.69747532 L21.9924887,9.69747532 L22.1079348,9.12024465 C22.2233809,8.65846011 22.3388271,8.25439864 22.3965501,7.7926141 L22.8583347,6.00319901 L23.6087346,6.00319901 L23.089227,8.13895249 L24.0705191,7.27310649 L24.878642,7.27310649 L23.7241807,8.36984476 Z" id="形状"></path>
                </g>
            </g>
        </g>
    </g>
</svg>