<?xml version="1.0" encoding="UTF-8"?>
<svg width="57px" height="22px" viewBox="0 0 57 22" version="1.1" xmlns="http://www.w3.org/2000/svg" xmlns:xlink="http://www.w3.org/1999/xlink">
    <!-- Generator: Sketch 52.5 (67469) - http://www.bohemiancoding.com/sketch -->
    <title>分组 10</title>
    <desc>Created with Sketch.</desc>
    <g id="---账户管理---" stroke="none" stroke-width="1" fill="none" fill-rule="evenodd">
        <g id="账户管理--卡类型选择" transform="translate(-812.000000, -562.000000)">
            <g id="分组-10" transform="translate(812.000000, 562.000000)">
                <path d="M0,11 L0,11 C0,4.92486775 4.93386654,0 10.9901733,0 L46.0098267,0 C52.0795318,0 57,4.923532 57,11 L57,11 C57,17.0751322 52.0661335,22 46.0098267,22 L10.9901733,22 C4.92046821,22 0,17.0791222 0,11 L0,11 Z" id="Rectangle-77-Copy-6" fill="#A7BBCC"></path>
                <text id="停用" font-family="PingFangSC-Regular, PingFang SC" font-size="12" font-weight="normal" line-spacing="18" fill="#FFFFFF">
                    <tspan x="25" y="15">停用</tspan>
                </text>
                <path d="M12,20 C16.9705627,20 21,15.9705627 21,11 C21,6.02943725 16.9705627,2 12,2 C7.02943725,2 3,6.02943725 3,11 C3,15.9705627 7.02943725,20 12,20 Z" id="Oval-1-Copy-12" fill="#FFFFFF"></path>
            </g>
        </g>
    </g>
</svg>