<?xml version="1.0" encoding="UTF-8"?>
<svg width="19px" height="16px" viewBox="0 0 19 16" version="1.1" xmlns="http://www.w3.org/2000/svg" xmlns:xlink="http://www.w3.org/1999/xlink">
    <!-- Generator: Sketch 52.5 (67469) - http://www.bohemiancoding.com/sketch -->
    <title>微信支付</title>
    <desc>Created with Sketch.</desc>
    <g id="---账户管理---" stroke="none" stroke-width="1" fill="none" fill-rule="evenodd">
        <g id="1-3-4账户管理--充值" transform="translate(-436.000000, -495.000000)" fill="#6BCC03">
            <g id="分组-64">
                <g id="weixinzhifu" transform="translate(436.000000, 495.000000)">
                    <path d="M-1.41956357e-14,7.6083849 L-1.41956357e-14,7.08778266 C0.0438659595,6.61056393 0.131597878,6.17672873 0.263195757,5.74289352 C0.614123433,4.61492199 1.18438091,3.66048454 1.97396818,2.83619765 C3.07061716,1.6648426 4.38659595,0.92732275 5.83417261,0.450104025 C6.66762584,0.189802902 7.50107907,0.0596523407 8.3345323,0.0162688202 C9.03638765,-0.0271147003 9.69437705,0.0162688202 10.3962324,0.146419382 C10.9664899,0.233186423 11.4928814,0.363336984 12.0631389,0.580254586 C13.4229836,1.05747331 14.6073645,1.79499316 15.6162816,2.83619765 C15.7478795,2.96634821 15.8356114,3.09649877 15.9672093,3.22664934 C15.9233433,3.22664934 15.9233433,3.27003286 15.8794773,3.27003286 C15.5285497,3.44356694 15.177622,3.61710102 14.8266943,3.74725158 C12.3702006,4.87522311 9.91370684,6.00319465 7.45721311,7.08778266 C6.97468756,7.30470026 6.492162,7.26131674 6.05350241,7.00101562 C5.70257473,6.78409802 5.39551302,6.56718041 5.04458534,6.35026281 C4.82525554,6.17672873 4.60592575,6.04657817 4.34272999,5.87304409 C4.12340019,5.74289352 3.99180231,5.82966057 3.99180231,6.08996169 L3.99180231,6.13334521 C4.03566827,6.35026281 4.07953423,6.56718041 4.16726615,6.78409802 C4.60592575,7.82530251 5.04458534,8.82312348 5.48324494,9.86432797 C5.61484281,10.1680126 5.83417261,10.2981632 6.09736837,10.2547797 C6.27283221,10.2547797 6.44829604,10.2113961 6.57989392,10.1246291 C7.10628544,9.86432797 7.58881099,9.56064333 8.07133655,9.25695868 C10.7471601,7.69515195 13.3791176,6.13334521 16.0549412,4.57153847 C16.230405,4.44138791 16.4497348,4.35462087 16.6251986,4.22447031 C16.6251986,4.26785383 16.6690646,4.26785383 16.6690646,4.31123735 C16.7567965,4.48477143 16.8445284,4.61492199 16.8883944,4.78845607 C17.37092,5.82966057 17.5902498,6.91424858 17.5025178,8.04222011 C17.4586519,8.51943884 17.37092,8.99665756 17.2393221,9.47387629 C16.9322604,10.5150808 16.4058688,11.4261347 15.6601475,12.2504216 C14.7828283,13.204859 13.6861794,13.9423789 12.5017985,14.4195976 C11.7999431,14.6798987 11.0980878,14.8968163 10.3962324,15.0269669 C9.91370684,15.1137339 9.43118129,15.1571175 8.99252169,15.1571175 L8.20293442,15.1571175 C7.85200675,15.1137339 7.50107907,15.1137339 7.19401736,15.0703504 C6.66762584,14.9835834 6.14123433,14.8534328 5.65870877,14.6798987 L5.5271109,14.6798987 C5.3077811,14.8100493 5.13231726,14.9401999 4.91298746,15.0703504 C4.43046191,15.3740351 3.99180231,15.6343362 3.50927676,15.8946373 C3.42154484,15.9380208 3.28994696,15.9814044 3.20221504,15.9814044 C3.11448312,15.9814044 3.0267512,15.9380208 3.0267512,15.8078703 C3.0267512,15.7211032 3.0267512,15.5909527 3.07061716,15.5041856 C3.15834908,14.8534328 3.28994696,14.2460635 3.42154484,13.5953107 C3.42154484,13.5085437 3.42154484,13.4651602 3.33381292,13.4217766 C3.07061716,13.204859 2.80742141,13.031325 2.54422565,12.7710238 C1.66690646,11.9901205 0.965051109,11.035683 0.526391514,9.95109501 C0.350927676,9.47387629 0.219329797,8.95327404 0.131597878,8.43267179 C0.087731919,8.21575419 0.087731919,7.99883659 0.087731919,7.73853547 C-1.42108547e-14,7.73853547 -1.42108547e-14,7.69515195 -1.41956357e-14,7.6083849 Z" id="路径-copy"></path>
                </g>
            </g>
        </g>
    </g>
</svg>