<?xml version="1.0" encoding="UTF-8"?>
<svg width="16px" height="17px" viewBox="0 0 16 17" version="1.1" xmlns="http://www.w3.org/2000/svg" xmlns:xlink="http://www.w3.org/1999/xlink">
    <!-- Generator: Sketch 52.5 (67469) - http://www.bohemiancoding.com/sketch -->
    <title>搜索</title>
    <desc>Created with Sketch.</desc>
    <g id="---账户管理---" stroke="none" stroke-width="1" fill="none" fill-rule="evenodd">
        <g id="1-3账户管理" transform="translate(-974.000000, -719.000000)">
            <g id="分组-5" transform="translate(761.000000, 712.000000)">
                <rect id="Rectangle-26-Copy-41" stroke="#DDE0E3" x="0.5" y="0.5" width="239" height="29" rx="4"></rect>
                <path d="M228.791861,8.21325328 L225.146765,11.856571 C226.105626,13.0342451 226.680231,14.5356905 226.680231,16.1723371 C226.680231,19.9508561 223.618635,23.0124527 219.840116,23.0124527 C216.061597,23.0124527 213,19.9508561 213,16.1723371 C213,12.3938181 216.061597,9.33222148 219.840116,9.33222148 C221.469646,9.33222148 222.965755,9.90148988 224.139871,10.8532355 L227.784968,7.20813876 C227.923727,7.06937959 228.105181,7 228.288414,7 C228.469869,7 228.653102,7.06937959 228.791861,7.20813876 C229.06938,7.4856571 229.06938,7.93573493 228.791861,8.21325328 L228.791861,8.21325328 Z M222.003336,11.0489215 C221.318435,10.7589504 220.590838,10.6130754 219.840116,10.6130754 C219.089393,10.6130754 218.361797,10.7607294 217.676896,11.0489215 C217.015121,11.3282188 216.420947,11.7302646 215.908606,12.2408272 C215.398043,12.7513898 214.995997,13.3473427 214.7167,14.0091172 C214.426729,14.6940182 214.280854,15.4216144 214.280854,16.1723371 C214.280854,16.9230598 214.428508,17.650656 214.7167,18.335557 C214.995997,18.9973316 215.398043,19.5915054 215.908606,20.103847 C216.419168,20.6144096 217.015121,21.0164554 217.676896,21.2957527 C218.361797,21.5857238 219.089393,21.7315988 219.840116,21.7315988 C220.590838,21.7315988 221.318435,21.5839449 222.003336,21.2957527 C222.66511,21.0164554 223.259284,20.6144096 223.771626,20.103847 C224.282188,19.5932844 224.684234,18.9991105 224.963531,18.335557 C225.253502,17.650656 225.399377,16.9230598 225.399377,16.1723371 C225.399377,15.4216144 225.251723,14.6940182 224.963531,14.0091172 C224.684234,13.3473427 224.282188,12.7531688 223.771626,12.2408272 C223.259284,11.7302646 222.66511,11.3299978 222.003336,11.0489215 L222.003336,11.0489215 Z" id="Shape" fill="#666666" transform="translate(221.000000, 15.006226) scale(1, -1) translate(-221.000000, -15.006226) "></path>
            </g>
        </g>
    </g>
</svg>