<?xml version="1.0" encoding="UTF-8"?>
<svg width="46px" height="16px" viewBox="0 0 46 16" version="1.1" xmlns="http://www.w3.org/2000/svg" xmlns:xlink="http://www.w3.org/1999/xlink">
    <!-- Generator: Sketch 52.5 (67469) - http://www.bohemiancoding.com/sketch -->
    <title>支付宝支付</title>
    <desc>Created with Sketch.</desc>
    <g id="---账户管理---" stroke="none" stroke-width="1" fill="none" fill-rule="evenodd">
        <g id="1-3-4账户管理--充值" transform="translate(-579.000000, -495.000000)" fill="#25ABEE" fill-rule="nonzero">
            <g id="分组-64">
                <g id="zhifubaozhifu" transform="translate(579.000000, 495.000000)">
                    <path d="M3.89976563,8.69132813 C3.49879688,8.73098438 2.74621875,8.90810938 2.3346875,9.27089063 C1.10095313,10.3430625 1.83914063,12.3040938 4.33539063,12.3040938 C5.7861875,12.3040938 7.23640625,11.3787969 8.37526563,9.89803125 C6.75554688,9.109625 5.38257813,8.54534375 3.89976563,8.69132813 Z M13.2108906,10.046375 C15.5214844,10.8180469 16.0455312,10.8594687 16.0455312,10.8594687 L16.0455312,2.56321875 C16.0455312,1.147375 14.8961094,0 13.4761563,0 L2.57025,0 C1.15001562,0 0,1.147375 0,2.56321875 L0,13.4370781 C0,14.8523437 1.15,16 2.57026563,16 L13.4761406,16 C14.8961094,16 16.0455312,14.852625 16.0455312,13.4370781 L16.0455312,13.3322031 C16.0455312,13.3322031 11.872,11.5973594 9.764375,10.586875 C8.35117187,12.3205625 6.52760937,13.3733438 4.63470312,13.3733438 C1.4331875,13.3733438 0.34603125,10.5798281 1.86175,8.7406875 C2.19251562,8.3403125 2.75473437,7.95728125 3.62745312,7.7425625 C4.99220312,7.40826563 7.16503125,7.95140625 9.20098438,8.6214375 C9.56698438,7.94846875 9.875125,7.2079375 10.1048281,6.4189375 L3.82984375,6.4189375 L3.82984375,5.78503125 L7.06515625,5.78503125 L7.06515625,4.649125 L3.14659375,4.649125 L3.14659375,4.01492188 L7.06515625,4.01492188 L7.06515625,2.3943125 C7.06515625,2.3943125 7.06515625,2.12114062 7.34275,2.12114062 L8.92396875,2.12114062 L8.92396875,4.01490625 L12.7984687,4.01490625 L12.7984687,4.64910937 L8.92396875,4.64910937 L8.92396875,5.78501562 L12.0867344,5.78501562 C11.7841719,7.02110937 11.3241719,8.1590625 10.7475469,9.15809375 C11.7072031,9.504125 12.5690625,9.83223437 13.2108906,10.046375 Z M38.8842031,2.50829688 L43.4775,2.50829688 L43.4775,3.4174375 L45.1177656,3.4174375 L45.1177656,2.34026563 C45.1171875,2.33760938 45.1171875,2.33673437 45.1171875,2.33379687 C45.1171875,2.09176562 44.9274219,1.89582812 44.6924375,1.89171875 L42.0375625,1.89171875 L42.0375625,1.04396875 L40.3209219,1.04396875 L40.3209219,1.89171875 L37.2439375,1.89171875 L37.2439375,3.4174375 L38.8842031,3.4174375 L38.8842031,2.50828125 L38.8842031,2.50829688 Z M28.9468125,1.12240625 L27.2648438,5.1 L28.5549688,5.1 L28.5549688,9.83340625 L29.9658281,9.83340625 L29.9658281,3.55490625 L29.4550156,3.55490625 L30.5177813,1.12240625 L28.9468438,1.12240625 L28.9468125,1.12240625 Z M45.3060625,9.61603125 L44.7905469,7.8753125 C44.7567656,7.76426562 44.6557031,7.68378125 44.5364531,7.68348438 L43.1708281,7.68348438 L43.5665,9.020625 L41.9608906,9.020625 L41.9608906,6.4309375 L45.11425,6.4309375 L45.11425,5.81407813 L41.9608906,5.81407813 L41.9608906,4.59532813 L45.11425,4.59532813 L45.11425,3.97876563 L37.2439375,3.97876563 L37.2439375,4.59532813 L40.397,4.59532813 L40.397,5.81407813 L37.2439375,5.81407813 L37.2439375,6.43095313 L40.397,6.43095313 L40.397,9.020625 L37.2439375,9.020625 L37.2439375,9.63748438 L45.3060625,9.63748438 L45.2995937,9.61632813 L45.3060625,9.61632813 L45.3060625,9.61603125 Z M32.5548906,4.38296875 C32.5011406,4.27370313 32.3915625,4.19820313 32.2646719,4.19732813 L31.0432656,4.19732813 L31.9944219,7.19351563 L33.4396406,7.19351563 L32.5548906,4.38296875 Z M35.6468438,1.19465625 L34.1804688,1.19465625 L34.1804688,2.72684375 L30.5665313,2.72684375 L30.5665313,3.34340625 L34.1804688,3.34340625 L34.1804688,8.85142188 C34.1678438,8.97714063 34.0685469,9.07584375 33.9437188,9.08229688 L33.1987813,9.08229688 L33.1987813,9.72060938 L35.0990156,9.72060938 C35.3995156,9.70798438 35.640375,9.45829688 35.6468438,9.14928125 L35.6468438,3.34340625 L36.2422656,3.34340625 L36.2422656,2.72684375 L35.6468438,2.72684375 L35.6468438,1.19465625 Z M26.4975625,3.98582812 L23.6808438,3.98582812 L23.6808438,2.97651562 L26.9467031,2.97651562 L26.9467031,2.34790625 L23.6808438,2.34790625 L23.6808438,1.0689375 L22.2250469,1.0689375 L22.22475,1.06923437 C22.06525,1.06923437 21.9362969,1.20259375 21.9362969,1.36767187 L21.9362969,2.34790625 L18.6933438,2.34790625 L18.6933438,2.97651562 L21.9362969,2.97651562 L21.9362969,3.98582812 L19.1991719,3.98582812 L19.1991719,4.61414062 L24.6510781,4.61414062 C24.6510781,4.61414062 24.3491094,5.79353125 22.8536563,7.06132813 C21.5138906,6.04703125 21.0659219,5.23923437 21.0659219,5.23923437 L19.603375,5.23923437 C20.1949688,6.26470312 21.0359688,7.08601563 21.9412813,7.73753125 C21.1097031,8.27803125 20.0310625,8.79914062 18.6363594,9.21565625 L18.6363594,9.96853125 C18.6363594,9.96853125 20.7880469,9.56257812 22.8674531,8.33735937 C24.9501094,9.55289062 27.041875,9.96853125 27.041875,9.96853125 L27.041875,9.25590625 C25.7032812,8.76857813 24.6425625,8.23278125 23.8095,7.71551563 C25.0165,6.82223437 26.0736875,5.60876563 26.4975625,3.98582813 Z M21.8749062,14.0374844 L22.1184219,14.7727344 L22.8010781,14.7727344 L21.4566094,11.1220625 L20.934625,11.1220625 L19.5951406,14.7727344 L20.2781094,14.7727344 L20.5321875,14.0374844 L21.8749062,14.0374844 Z M21.2145625,12.0629375 L21.7195156,13.5768906 L20.6913906,13.5768906 L21.2145625,12.0629375 Z M24.9551094,11.1220625 L24.9551094,14.7727344 L27.16525,14.7727344 L27.16525,14.2757031 L25.611625,14.2757031 L25.611625,11.1220781 L24.9551094,11.1220625 Z M29.5739531,11.1220625 L30.2310625,11.1220625 L30.2310625,14.7724375 L29.5739531,14.7724375 L29.5739531,11.1220625 Z M34.3117656,11.1220625 L32.8929844,11.1220625 L32.8929844,14.7727344 L33.5495,14.7727344 L33.5495,13.3695156 L34.3117812,13.3695156 C35.0197031,13.3695156 35.5143594,12.9074531 35.5143594,12.2459375 C35.5143594,11.5844219 35.0197031,11.1220625 34.3117812,11.1220625 L34.3117656,11.1220625 Z M34.2750469,12.8677969 L33.5495,12.8677969 L33.5495,11.6187969 L34.2750625,11.6187969 C34.6392969,11.6187969 34.8569688,11.9375 34.8569688,12.2459375 C34.8569688,12.5473281 34.6531094,12.8677969 34.2750625,12.8677969 L34.2750469,12.8677969 Z M39.3703594,14.0374844 L39.613875,14.7727344 L40.2965313,14.7727344 L38.9517656,11.1220625 L38.4300781,11.1220625 L37.090625,14.7727344 L37.773875,14.7727344 L38.027375,14.0374844 L39.370375,14.0374844 L39.3703594,14.0374844 Z M38.7100156,12.0629375 L39.2149688,13.5768906 L38.1868438,13.5768906 L38.7100156,12.0629375 Z M43.9542344,11.1220625 L43.2378125,12.6774531 L42.5107813,11.1220625 L41.8010938,11.1220625 L42.9064531,13.2731562 L42.9064531,14.7727344 L43.5582813,14.7727344 L43.5582813,13.2731719 L43.5623906,13.2649375 L44.6639375,11.1220625 L43.95425,11.1220625 L43.9542344,11.1220625 Z" id="形状"></path>
                </g>
            </g>
        </g>
    </g>
</svg>