<?xml version="1.0" encoding="UTF-8"?>
<svg width="19px" height="16px" viewBox="0 0 19 16" version="1.1" xmlns="http://www.w3.org/2000/svg" xmlns:xlink="http://www.w3.org/1999/xlink">
    <!-- Generator: Sketch 52.5 (67469) - http://www.bohemiancoding.com/sketch -->
    <title>现金支付 </title>
    <desc>Created with Sketch.</desc>
    <g id="---账户管理---" stroke="none" stroke-width="1" fill="none" fill-rule="evenodd">
        <g id="1-3-4账户管理--充值" transform="translate(-436.000000, -465.000000)" fill="#F78383" fill-rule="nonzero">
            <g id="分组-64">
                <g id="xianjin" transform="translate(436.000000, 465.000000)">
                    <path d="M18.155102,5.28571428 L18.2857143,5.28571428 L18.2857143,2.57142858 C18.2857143,1.14285716 17.2408163,0 16.0653061,0 L2.22040816,0 C1.04489796,0 0,1.14285714 0,2.57142858 L0,5.28571428 L0.130612243,5.28571428 C1.56734694,5.28571428 2.6122449,6.57142856 2.6122449,8.14285714 C2.6122449,9.71428572 1.4367347,11 0.130612243,11 L0,11 L0,13.4285714 C0,14.8571428 1.04489796,16 2.22040816,16 L16.0653061,16 C17.2408163,16 18.2857143,14.8571429 18.2857143,13.4285714 L18.2857143,10.8571429 L18.155102,10.8571429 C16.7183673,10.8571429 15.6734694,9.57142858 15.6734694,8 C15.6734694,6.42857142 16.7183673,5.28571428 18.155102,5.28571428 Z M11.8857143,8.56198348 C12.2971428,8.56198348 12.5714286,8.82644628 12.5714286,9.22314049 C12.5714286,9.6198347 12.2971429,9.88429752 11.8857143,9.88429752 L9.82857143,9.88429752 L9.82857143,11.338843 C9.82857143,11.7355372 9.55428572,12 9.14285714,12 C8.73142856,12 8.45714285,11.7355372 8.45714285,11.338843 L8.45714285,9.88429752 L6.39999999,9.88429752 C5.98857142,9.88429752 5.7142857,9.61983472 5.71428571,9.22314049 C5.71428573,8.82644627 5.98857142,8.56198346 6.39999999,8.56198348 L8.45714285,8.56198348 L8.45714285,7.90082645 L6.39999999,7.90082645 C5.98857142,7.90082645 5.7142857,7.63636364 5.71428571,7.23966942 C5.71428573,6.84297519 5.98857142,6.57851239 6.39999999,6.5785124 L7.77142857,6.5785124 L6.26285713,5.12396694 C5.98857142,4.85950413 5.98857142,4.46280991 6.26285713,4.1983471 C6.53714284,3.9338843 6.94857142,3.9338843 7.22285713,4.1983471 L9.00571428,6.04958678 L10.7885714,4.1983471 C11.0628571,3.9338843 11.4742857,3.9338843 11.7485714,4.1983471 C12.0228571,4.46280991 12.0228571,4.85950413 11.7485714,5.12396694 L10.3771428,6.5785124 L11.7485714,6.5785124 C12.16,6.5785124 12.4342857,6.84297521 12.4342857,7.23966942 C12.4342857,7.63636363 12.2971429,7.90082645 11.8857143,7.90082645 L9.82857143,7.90082645 L9.82857143,8.69421488 L11.8857143,8.69421488 L11.8857143,8.56198348 Z" id="形状"></path>
                </g>
            </g>
        </g>
    </g>
</svg>