<?xml version="1.0" encoding="UTF-8"?>
<svg width="12px" height="12px" viewBox="0 0 12 12" version="1.1" xmlns="http://www.w3.org/2000/svg" xmlns:xlink="http://www.w3.org/1999/xlink">
    <!-- Generator: Sketch 52.5 (67469) - http://www.bohemiancoding.com/sketch -->
    <title>筛选按钮</title>
    <desc>Created with Sketch.</desc>
    <g id="---账户管理---" stroke="none" stroke-width="1" fill="none" fill-rule="evenodd">
        <g id="1-2账户管理--刷卡成功" transform="translate(-874.000000, -506.000000)" fill="#5175F4">
            <g id="分组-13" transform="translate(22.000000, 464.000000)">
                <g id="分组-8" transform="translate(14.000000, 31.000000)">
                    <g id="分组-30" transform="translate(776.000000, 6.000000)">
                        <path d="M67.021113,16.9823461 L67.021046,16.9823461 C66.6545425,16.9823059 66.2847157,16.7039374 66.2847157,16.0821411 L66.2847157,10.7667818 L62.2865846,6.35240461 C62.1688747,6.22243322 62.0862874,6.08816028 62.041101,5.95331111 C61.9814822,5.77539276 61.9868156,5.59829183 62.0564982,5.44117105 C62.1261807,5.28403686 62.2538606,5.16120794 62.4257487,5.08595077 C62.5560283,5.02891827 62.7109917,5 62.8863371,5 L73.1136742,5 C73.2890196,5 73.4439829,5.02891827 73.5742491,5.08596417 C73.7461239,5.16120794 73.8738172,5.28403686 73.9434997,5.44117105 C74.0131823,5.59829183 74.0185157,5.77539276 73.9589103,5.95331111 C73.9137238,6.08816028 73.8311366,6.22243322 73.7134267,6.35240461 L69.7152554,10.7668354 L69.7152554,13.9648096 C69.7152554,14.5692388 69.3633719,15.3146011 68.8967399,15.6985788 L67.6481757,16.7260483 C67.4415267,16.8961139 67.2305493,16.9823461 67.021113,16.9823461 L67.021113,16.9823461 Z" id="Fill-1-Copy-5"></path>
                    </g>
                </g>
            </g>
        </g>
    </g>
</svg>