<?xml version="1.0" encoding="UTF-8"?>
<svg width="43px" height="12px" viewBox="0 0 43 12" version="1.1" xmlns="http://www.w3.org/2000/svg" xmlns:xlink="http://www.w3.org/1999/xlink">
    <!-- Generator: Sketch 52.5 (67469) - http://www.bohemiancoding.com/sketch -->
    <title>编组 6</title>
    <desc>Created with Sketch.</desc>
    <defs>
        <polygon id="path-1" points="-1.89018939e-13 3.4333647e-14 5.75140449 3.4333647e-14 5.75140449 5.6 -1.89018939e-13 5.6"></polygon>
        <polygon id="path-3" points="0 0 7.07865169 0 7.07865169 7 0 7"></polygon>
    </defs>
    <g id="---账户管理---" stroke="none" stroke-width="1" fill="none" fill-rule="evenodd">
        <g id="账户管理--卡类型选择" transform="translate(-542.000000, -750.000000)">
            <g id="分组" transform="translate(0.000000, 740.000000)">
                <g id="编组-3" transform="translate(207.000000, 6.000000)">
                    <g id="编组-2" transform="translate(268.000000, 0.000000)">
                        <g id="编组-6" transform="translate(67.000000, 4.000000)">
                            <g id="编组-5">
                                <path d="M5.49390036,5.6 C5.63609877,5.6 5.75140449,5.48781603 5.75140449,5.3492719 L5.75086484,0.251250662 C5.75086484,0.0278460586 5.47348351,-0.0839876061 5.31131797,0.0739106691 L0.0759702195,5.17149403 C-0.0862852666,5.32947988 0.028570751,5.59947455 0.25801296,5.59947455 L5.49390036,5.6 Z" id="Fill-1" fill="#5A7BEF"></path>
                                <g id="Group-5" transform="translate(6.573034, 0.000000)">
                                    <mask id="mask-2" fill="white">
                                        <use xlink:href="#path-1"></use>
                                    </mask>
                                    <g id="Clip-4"></g>
                                    <path d="M3.35824022,5.52993878 C3.40432473,5.57480945 3.46675891,5.6 3.53179826,5.6 L5.50543702,5.6 C5.7240914,5.6 5.83368809,5.3424966 5.67899506,5.19205303 L0.418982757,0.0704992543 C0.264379557,-0.080119245 -1.89018939e-13,0.0265907255 -1.89018939e-13,0.23957333 L-1.89018939e-13,2.16114 C-1.89018939e-13,2.22455371 0.0258720056,2.28525594 0.0718666821,2.33012661 L3.35824022,5.52993878 Z" id="Fill-3" fill="#5A7BEF" mask="url(#mask-2)"></path>
                                </g>
                                <path d="M2.39353946,6.46978719 C2.34764342,6.42501145 2.28540086,6.4 2.22055363,6.4 L0.245227954,6.4 C0.027154442,6.4 -0.0819721301,6.65667343 0.0721523124,6.80674211 L5.33366977,11.9298038 C5.48779422,12.079785 5.75140449,11.9735301 5.75140449,11.7612826 L5.75140449,9.83793721 C5.75140449,9.77470897 5.72562727,9.71419176 5.67973124,9.66950347 L2.39353946,6.46978719 Z" id="Fill-6" fill="#5A7BEF"></path>
                                <path d="M12.0805014,6.4 L10.1024786,6.4 C10.0379184,6.4 9.97596203,6.42491686 9.93034782,6.46941751 L6.64432837,9.66891772 C6.59871415,9.71333094 6.57303371,9.77365598 6.57303371,9.83651642 L6.57303371,11.7624589 C6.57303371,11.9736839 6.83531545,12.0793839 6.98867979,11.930145 L12.2526322,6.80470233 C12.4059966,6.655376 12.2974383,6.4 12.0805014,6.4" id="Fill-8" fill="#5A7BEF"></path>
                            </g>
                            <path d="M26.168832,2.00610973 L24.7790467,2.00523691 C24.6985773,2.00523691 24.6331613,2.06960723 24.6330506,2.14903366 L24.6303941,6.39442011 C24.6303941,6.52250614 24.473108,6.58654916 24.3813485,6.4957761 L22.6126818,4.75035842 L22.6090291,4.75363149 L22.4892658,4.63558287 C22.1656172,4.29638399 21.7286251,4.10949185 21.2593125,4.10916455 C20.7899998,4.10894634 20.3531184,4.29518387 20.029027,4.63383723 L19.9101493,4.75799558 L19.9028439,4.75079483 L18.1342879,6.49173931 C18.042307,6.58218507 17.8852422,6.51792385 17.8853529,6.38994692 L17.8880094,2.14477868 C17.8880094,2.06546135 17.8228148,2.00098192 17.7422347,2.00087282 L16.3524494,2 C16.2718693,2 16.206564,2.06437032 16.2064533,2.14390586 L16.2022472,8.85009338 C16.2022472,8.92951981 16.2674418,8.99399924 16.3480219,8.99410834 L17.9105895,8.99498116 C17.94933,8.99509026 17.9864101,8.97992505 18.0137498,8.95297679 L21.1547133,5.86080105 C21.2117171,5.80472249 21.3041407,5.80472249 21.3610338,5.86101925 L24.4983446,8.95701358 C24.5256843,8.98385273 24.5627644,8.99912704 24.6015049,8.99912704 L26.1644046,8.99999986 C26.2449847,9.00010896 26.31029,8.93584774 26.3104006,8.85642131 L26.3146067,2.15001558 C26.3146067,2.07058915 26.2494121,2.00621883 26.168832,2.00610973" id="Fill-10" fill="#5A7BEF"></path>
                            <path d="M31.5425757,2 C31.4503871,2 31.375723,2.06429526 31.375723,2.14357503 L31.3707865,8.85546838 C31.3707865,8.93474815 31.4453272,8.99914968 31.5373924,8.99914968 L33.2215925,8.99999987 C33.3136577,9.00010614 33.3883218,8.93591716 33.3884452,8.85663739 L33.3932583,2.14474403 C33.3933817,2.06535799 33.3187176,2.00106273 33.2266524,2.00095646 L31.5425757,2 Z" id="Fill-12" fill="#5A7BEF"></path>
                            <path d="M28.8433026,7.5000001 C28.2848445,7.4997604 27.8318245,7.94714768 27.8314609,8.49952055 C27.8310973,9.05165374 28.2835114,9.49976009 28.8420907,9.49999978 C29.4005487,9.50035932 29.8535688,9.05297205 29.8539324,8.50071902 C29.8542959,7.94834614 29.4017607,7.50047948 28.8433026,7.5000001" id="Fill-14" fill="#5A7BEF"></path>
                            <g id="Group-18" transform="translate(35.921348, 2.000000)">
                                <mask id="mask-4" fill="white">
                                    <use xlink:href="#path-3"></use>
                                </mask>
                                <g id="Clip-17"></g>
                                <path d="M4.74099896,0.00285158189 L0.133738978,0 C0.0622762959,0 0.00427295339,0.0571372519 0.00427295339,0.127898728 L1.4730512e-07,6.86777095 C-0.000106672847,6.93853242 0.0578966697,6.9958809 0.129359351,6.9958809 L1.62687106,6.99683143 C1.69833374,6.99683143 1.75633709,6.93958856 1.75644391,6.8689327 L1.75954169,1.86556824 C1.75954169,1.79480676 1.81754503,1.7375639 1.88900772,1.73766951 L4.46113016,1.73914811 C4.93690711,1.73946495 5.32231422,2.12115447 5.32199376,2.59145425 L5.31943008,6.87104498 C5.31932326,6.94180646 5.37721978,6.99904933 5.44868246,6.99915494 L6.94630099,6.99999985 C7.01765686,7.00010547 7.0756602,6.9428626 7.07576702,6.87220674 L7.07865116,2.31685748 C7.07950572,1.03966563 6.03288187,0.0035908809 4.74099896,0.00285158189" id="Fill-16" fill="#5A7BEF" mask="url(#mask-4)"></path>
                            </g>
                        </g>
                    </g>
                </g>
            </g>
        </g>
    </g>
</svg>