<?xml version="1.0" encoding="UTF-8"?>
<svg width="24px" height="24px" viewBox="0 0 24 24" version="1.1" xmlns="http://www.w3.org/2000/svg" xmlns:xlink="http://www.w3.org/1999/xlink">
    <!-- Generator: Sketch 52.5 (67469) - http://www.bohemiancoding.com/sketch -->
    <title>警告提醒</title>
    <desc>Created with Sketch.</desc>
    <g id="---账户管理---" stroke="none" stroke-width="1" fill="none" fill-rule="evenodd">
        <g id="1-3-1账户管理--更改账户状态" transform="translate(-160.000000, -201.000000)" fill="#FFBF00">
            <g id="分组-59" transform="translate(146.000000, 177.000000)">
                <g id="分组-56">
                    <g id="分组-35" transform="translate(14.000000, 24.000000)">
                        <path d="M12,24 C5.371875,24 0,18.628125 0,12 C0,5.371875 5.371875,0 12,0 C18.628125,0 24,5.371875 24,12 C24,18.628125 18.628125,24 12,24 L12,24 Z M12.75,5.25 C12.75,4.83515625 12.4148438,4.5 12,4.5 L12,4.5 C11.5851563,4.5 11.25,4.83515625 11.25,5.25 L11.25,5.25 C11.25,5.66484375 11.5851563,6 12,6 L12,6 C12.4148438,6 12.75,5.66484375 12.75,5.25 L12.75,5.25 L12.75,5.25 Z M12.75,8.25 C12.75,7.83515625 12.4148438,7.5 12,7.5 L12,7.5 C11.5851563,7.5 11.25,7.83515625 11.25,8.25 L11.25,18.75 C11.25,19.1648438 11.5851563,19.5 12,19.5 L12,19.5 C12.4148438,19.5 12.75,19.1648438 12.75,18.75 L12.75,8.25 L12.75,8.25 Z" id="Shape-Copy-2" transform="translate(12.000000, 12.000000) scale(1, -1) translate(-12.000000, -12.000000) "></path>
                    </g>
                </g>
            </g>
        </g>
    </g>
</svg>