<?xml version="1.0" encoding="UTF-8"?>
<svg width="16px" height="16px" viewBox="0 0 16 16" version="1.1" xmlns="http://www.w3.org/2000/svg" xmlns:xlink="http://www.w3.org/1999/xlink">
    <!-- Generator: Sketch 52.5 (67469) - http://www.bohemiancoding.com/sketch -->
    <title>说明标记</title>
    <desc>Created with Sketch.</desc>
    <g id="---账户管理---" stroke="none" stroke-width="1" fill="none" fill-rule="evenodd">
        <g id="1-3-3交易信息搜索" transform="translate(-947.000000, -756.000000)" fill-rule="nonzero">
            <g id="分组-43" transform="translate(913.000000, 754.000000)">
                <g id="信息3" transform="translate(34.000000, 2.000000)">
                    <rect id="矩形" fill="#000000" opacity="0" x="0" y="0" width="16" height="16"></rect>
                    <path d="M7.07043025,12.6859589 C6.7615037,12.6859589 6.49507634,12.575218 6.29981672,12.365744 C6.17046442,12.227086 6.01615305,11.9785665 6.01615305,11.5827709 C6.01615305,10.8257162 6.49739477,9.10357178 6.92697552,7.68459786 C6.72599178,7.77073145 6.50719613,7.8661068 6.30490128,7.95572603 L4.04024472,8.95877395 L5.70517989,7.12504122 C6.21270778,6.56610817 6.67164463,6.17462959 7.10835653,5.9281727 C7.57616736,5.66422366 7.980821,5.53592664 8.34551773,5.53592664 L8.3586928,5.53592664 L8.37186786,5.53655022 C8.38617816,5.5373017 8.40103209,5.53774941 8.41633372,5.53818111 C8.581102,5.54323369 8.88775809,5.55260333 9.11773017,5.80062717 C9.26730875,5.9619578 9.33846052,6.17467756 9.32939466,6.4333182 C9.32896295,6.54569002 9.31452473,6.75155044 8.85483641,8.29026719 C8.49007572,9.51530861 8.30888656,10.2202706 8.22032261,10.625372 C8.45166975,10.5232492 8.72103913,10.3997809 8.96213966,10.2856663 L11.9597393,8.8668203 L9.54505644,11.140159 C8.87076161,11.7750405 8.38147734,12.1758887 8.0493825,12.3656481 C7.6721343,12.5812299 7.35193539,12.6859589 7.07043025,12.6859589 Z M8.82779875,5.02764725 C8.50358656,5.02764725 8.21627736,4.90585783 7.99692208,4.67539008 C7.78431422,4.45242125 7.67183048,4.15574241 7.67183048,3.8175397 C7.67183048,3.41781072 7.81029661,3.05616791 8.072247,2.77180072 C8.34524591,2.47518583 8.69401744,2.31836416 9.08068328,2.31836416 C9.40790142,2.31836416 9.69669763,2.43690778 9.91592498,2.66118772 C10.1317786,2.88260559 10.2456374,3.17296873 10.2456374,3.50137008 C10.2456374,3.89959608 10.1070434,4.25373997 9.83372472,4.55396842 C9.47723044,4.94551094 9.08994102,5.02764725 8.82779875,5.02764725 Z M7.96531152,0.953881266 C4.09774173,0.953881266 0.962427469,4.08919552 0.962427469,7.9567813 C0.962427469,11.824431 4.09774172,14.9596973 7.96531152,14.9596973 C11.8329453,14.9596973 14.9682275,11.824415 14.9682275,7.9567813 C14.9682115,4.08919553 11.8329453,0.953881266 7.96531152,0.953881266 Z M7.96531152,14.4320711 C4.38914416,14.4320711 1.49005373,11.5330286 1.49005373,7.9567973 C1.49005373,4.38061395 4.38914416,1.48152353 7.96531152,1.48152353 C11.5415428,1.48152353 14.4406013,4.38061395 14.4406013,7.9567973 C14.4406013,11.5330446 11.5415428,14.4320711 7.96531152,14.4320711 Z" id="形状" fill="#5A7BEF"></path>
                </g>
            </g>
        </g>
    </g>
</svg>