<?xml version="1.0" encoding="UTF-8"?>
<svg width="16px" height="16px" viewBox="0 0 16 16" version="1.1" xmlns="http://www.w3.org/2000/svg" xmlns:xlink="http://www.w3.org/1999/xlink">
    <!-- Generator: Sketch 52.5 (67469) - http://www.bohemiancoding.com/sketch -->
    <title>重打作废</title>
    <desc>Created with Sketch.</desc>
    <g id="---账户管理---" stroke="none" stroke-width="1" fill="none" fill-rule="evenodd">
        <g id="1-3账户管理" transform="translate(-901.000000, -881.000000)" fill-rule="nonzero">
            <g id="分组-14" transform="translate(36.000000, 748.000000)">
                <g id="分组-59-copy-5" transform="translate(865.000000, 133.000000)">
                    <g id="分组-59-copy-3">
                        <g id="分组-3">
                            <g id="分组" transform="translate(1.000000, 1.000000)">
                                <g id="分组-58-copy" transform="translate(0.000000, 3.000000)" stroke="#C2C9DF" stroke-linecap="round" stroke-linejoin="round" stroke-width="1.5">
                                    <polygon id="路径-2" points="14 6.82121026e-13 0 0 0 6 14 5.99999998"></polygon>
                                </g>
                                <g id="分组-58-copy-2" transform="translate(3.000000, 9.000000)" stroke="#C2C9DF" stroke-linecap="round" stroke-linejoin="round" stroke-width="1.5">
                                    <polygon id="路径-2" points="8 5.68434189e-13 0 0 0 5 8 4.99999999"></polygon>
                                </g>
                                <g id="分组-58-copy-3" transform="translate(2.000000, 0.000000)" stroke="#C2C9DF" stroke-linecap="round" stroke-linejoin="round" stroke-width="1.5">
                                    <polygon id="路径-2" points="10 3.41060513e-13 0 0 0 3 10 2.99999999"></polygon>
                                </g>
                                <path d="M11,6.68603565 C11.5522847,6.68603565 12,6.23832039 12,5.68603565 C12,5.1337509 11.5522847,4.68603565 11,4.68603565 C10.4477153,4.68603565 10,5.1337509 10,5.68603565 C10,6.23832039 10.4477153,6.68603565 11,6.68603565 Z" id="椭圆形" fill="#C2C9DF"></path>
                            </g>
                        </g>
                    </g>
                </g>
            </g>
        </g>
    </g>
</svg>