<?xml version="1.0" encoding="UTF-8"?>
<svg width="26px" height="16px" viewBox="0 0 26 16" version="1.1" xmlns="http://www.w3.org/2000/svg" xmlns:xlink="http://www.w3.org/1999/xlink">
    <!-- Generator: Sketch 52.5 (67469) - http://www.bohemiancoding.com/sketch -->
    <title>银联支付</title>
    <desc>Created with Sketch.</desc>
    <g id="---账户管理---" stroke="none" stroke-width="1" fill="none" fill-rule="evenodd">
        <g id="1-3-4账户管理--充值" transform="translate(-579.000000, -465.000000)" fill-rule="nonzero">
            <g id="分组-64">
                <g id="zhifupingtai-yinlian" transform="translate(579.000000, 465.000000)">
                    <path d="M5.68108316,14.3870968 L7.48950638,6.32258064 L7.42714697,6.32258064 C7.36478755,6.32258064 7.27124842,6.3548387 7.20888899,6.38709678 C7.17770928,6.5483871 7.08417015,7.00000001 7.02181073,7.19354839 C6.92827159,7.61290324 6.92827159,7.67741936 6.89709189,7.9032258 L6.86591217,7.93548388 L6.08641941,7.93548388 L6.05523969,7.9032258 L6.24231795,7.12903226 C6.39821651,6.41935483 6.42939621,6.16129031 6.49175564,5.80645162 L6.52293535,5.77419355 C6.86591217,5.70967741 6.9594513,5.70967741 7.36478755,5.6451613 L7.39596725,5.67741935 L7.33360784,5.90322582 C7.39596727,5.87096776 7.45832668,5.80645162 7.52068611,5.77419355 C7.55186581,5.74193549 7.58304553,5.74193549 7.64540494,5.70967741 L8.58079627,1.61290323 C8.76787454,0.709677424 9.64090644,0 10.4827586,0 L4.80805126,0 C3.93501936,0 3.09316717,0.709677424 2.90608891,1.61290323 L0.0375555078,14.3870968 C-0.149522755,15.2903226 0.380532329,16 1.22238451,16 L6.86591217,16 C5.99288026,16 5.46282518,15.2580645 5.68108316,14.3870968 Z M5.11984838,7.67741936 C4.83923098,7.83870968 4.43389474,7.93548388 3.99737878,7.93548388 C3.65440196,7.93548388 3.06198745,7.87096774 2.87490919,7.51612903 C2.78137006,7.38709678 2.75019035,7.25806451 2.75019035,7.0967742 L2.81254976,6.51612903 L2.84372948,6.35483872 L3.31142514,4.25806453 L3.34260484,4.12903225 C3.34260484,4.12903225 3.4985034,4.16129031 4.37153531,4.12903225 L4.37153531,4.16129033 C4.27799618,4.41935485 3.84148022,6.25806453 3.84148022,6.25806451 L3.74794109,6.8064516 L3.74794109,6.90322582 C3.7791208,7.16129034 3.93501936,7.32258066 4.21563675,7.32258064 C4.40271501,7.32258064 4.52743387,7.25806451 4.68333243,7.16129032 C4.90159039,6.96774193 4.96394982,6.67741935 5.05748895,6.25806451 C5.05748895,6.25806451 5.4940049,4.22580645 5.4940049,4.0967742 C5.55636433,4.0967742 5.74344259,4.12903225 6.36703681,4.0967742 L6.36703681,4.12903225 C6.27349768,4.38709677 5.83698172,6.32258064 5.83698172,6.32258064 L5.7746223,6.51612903 C5.71226287,6.93548387 5.58754403,7.38709678 5.11984838,7.67741936 Z" id="形状" fill="#D43634"></path>
                    <path d="M12.8924956,14.4184411 L13.3594247,12.2895437 L12.7991098,12.2895437 C12.705724,12.2895437 12.6434668,12.2895437 12.5812096,12.2572877 C12.5189524,12.2250317 12.4566952,12.1605197 12.4566952,12.0960076 C12.4566952,12.0314956 12.4878238,11.9347275 12.5189524,11.8057034 L13.4839392,8.51558937 L14.1687685,8.51558937 L14.0753827,8.87040559 L14.1687685,8.77363753 L14.3555401,7.96723702 L13.9197396,7.96723702 L13.9197396,7.93498099 C13.9508682,7.80595691 13.9819969,7.64467681 14.0131255,7.51565274 L14.0442541,7.32211662 C14.1065113,7.03181244 14.1687685,6.67699621 14.1687685,6.54797212 C14.1687685,6.48346007 14.1998971,6.32217998 14.0131255,6.32217998 C13.9508682,6.32217998 13.8574824,6.354436 13.7640966,6.38669203 C13.732968,6.54797214 13.6395822,6.99955642 13.577325,7.19309252 C13.4839392,7.61242079 13.4839392,7.67693282 13.4528106,7.90272497 L13.421682,7.93498099 L12.6434668,7.93498099 L12.6123382,7.90272497 L12.7991098,7.1285805 C12.9547528,6.41894804 12.9858814,6.16089988 13.0170101,5.80608365 L13.0481387,5.77382764 C13.3905533,5.70931559 13.4839392,5.70931559 13.888611,5.64480354 L13.9197396,5.67705958 L13.8574824,5.90285171 C13.9197396,5.8705957 13.9819968,5.80608365 14.0442541,5.77382764 C14.2310257,5.67705958 14.4177974,5.64480357 14.5423118,5.64480354 C14.6356976,5.64480354 14.7290834,5.64480354 14.8224692,5.70931559 L15.7251988,1.612801 C15.9119705,0.709632431 16.7835714,-2.14200135e-08 17.6551724,0 L10.9002648,0 C10.0286639,0 9.1881915,0.709632453 9.00141984,1.612801 L8.09869026,5.70931559 C8.2543333,5.64480354 8.37884772,5.64480354 8.47223353,5.64480354 C8.62787657,5.64480354 8.81464821,5.70931559 8.90803402,5.90285171 C8.97029124,6.09638783 8.93916262,6.32217998 8.84577682,6.74150824 L8.78351961,6.96730039 C8.69013379,7.45114069 8.65900519,7.54790875 8.62787657,7.87046896 L8.53449075,7.96723702 L7.75627559,7.96723702 L7.75627559,7.93498099 C7.78740419,7.80595691 7.81853281,7.64467681 7.84966141,7.51565274 L7.88079003,7.32211662 C7.94304725,7.03181244 8.00530444,6.67699621 8.00530444,6.54797212 C8.00530444,6.48346007 8.03643304,6.354436 7.91191863,6.32217998 L6.10645947,14.3861851 C5.91968783,15.2893536 6.44887414,15.9989861 7.2893465,15.9989861 L14.0753827,15.9989861 C13.2349103,16.0312421 12.705724,15.2893536 12.8924956,14.4184411 Z M13.1415245,8.77363753 L12.9858815,9.28973385 L11.8963802,9.28973385 L11.7718658,9.3865019 C11.7096086,9.45101395 11.7096086,9.41875792 11.6473514,9.45101395 C11.5850942,9.48326999 11.4605797,9.54778201 11.2738081,9.54778201 L10.9313934,9.54778201 L11.0870365,9.06394171 L11.1804223,9.06394171 C11.2738081,9.06394171 11.3360653,9.06394171 11.3671939,9.03168568 C11.3983225,8.99942967 11.4294511,8.96717363 11.4917084,8.87040559 L11.67848,8.48333333 L12.4878238,8.48333333 L12.3633093,8.77363753 L13.1415245,8.77363753 Z M10.2465641,6.09638783 L10.0909211,6.74150824 C10.0597925,6.87053231 10.0286639,7.03181241 9.99753526,7.16083651 C9.93527804,7.45114069 9.90414944,7.58016478 9.87302082,7.64467681 C9.84189222,7.70918885 9.84189222,7.77370088 9.81076362,7.93498099 L8.90803402,7.93498099 C8.93916262,7.77370088 8.97029124,7.70918885 9.00141984,7.64467681 C9.03254844,7.58016476 9.03254844,7.51565274 9.09480566,7.35437263 C9.15706288,7.1285805 9.18819148,6.96730039 9.2193201,6.80602028 C9.25044869,6.67699621 9.31270591,6.28992395 9.34383451,6.16089988 C9.31270591,6.06413182 9.37496311,5.96736376 9.49947755,5.8705957 C9.68624918,5.74157162 9.96640664,5.70931559 10.1531783,5.80608365 C10.2776927,5.8705957 10.3088213,5.99961977 10.2465641,6.09638783 Z M10.4022071,6.8382763 C10.4644643,6.54797212 10.5889788,6.2254119 10.806879,5.99961977 C11.1492937,5.67705956 11.5539656,5.67705956 11.7407372,5.67705958 C12.0208946,5.67705958 12.3321807,5.74157162 12.4878238,5.96736376 C12.5812096,6.09638783 12.6745954,6.354436 12.5812096,6.8382763 C12.550081,6.9995564 12.4566952,7.35437263 12.2387949,7.58016478 C11.9586374,7.87046896 11.6162228,7.96723702 11.2426795,7.96723702 C11.1181651,7.96723702 10.9002648,7.93498101 10.7446218,7.87046896 C10.2776927,7.67693284 10.3399499,7.16083651 10.4022071,6.8382763 Z M12.0831519,12.2895437 L11.1804223,12.2895437 C11.1181651,12.2895437 11.0559079,12.2895437 10.9625221,12.2572877 C10.9002648,12.2250317 10.8380076,12.1927757 10.806879,12.1605197 C10.7757504,12.0960076 10.7134932,12.0637516 10.7446218,11.9347275 L10.9936507,11.0315589 L10.5578502,11.0315589 L10.7134932,10.5154626 L11.1492937,10.5154626 L11.2738081,10.0961344 L10.8380076,10.0961344 L10.9936507,9.61229406 L12.9547528,9.61229406 L12.7991098,10.0961344 L12.0208947,10.0961344 L11.8963802,10.5154626 L12.705724,10.5154626 L12.5812096,11.0315589 L11.7718658,11.0315589 L11.5850942,11.7089354 C11.5539656,11.7734474 11.7718658,11.8057034 11.8652516,11.8057034 L12.2699235,11.7411914 L12.0831519,12.2895437 Z" id="形状" fill="#034582"></path>
                    <path d="M13.7350272,8.87542356 L13.5898367,9.41758023 C13.5898367,9.41758023 13.6479129,9.38568867 13.7059891,9.32190552 L13.7931034,8.87542356 L13.7350272,8.87542356 Z M11.2377496,7.34462828 C11.3248639,7.34462828 11.3829401,7.28084514 11.4410163,7.18517043 C11.5281307,7.05760417 11.5862069,6.73868847 11.615245,6.67490533 C11.7023593,6.29220651 11.6733212,6.06896552 11.4990926,6.06896552 C11.2667877,6.06896552 11.1796733,6.38788121 11.092559,6.73868847 C11.0635209,6.86625474 11.0344828,6.99382102 11.0344828,7.08949573 C11.092559,7.34462828 11.2377495,7.34462828 11.2377496,7.34462828 Z M13.0671506,11.3629659 C13.0381125,11.4586406 13.0381125,11.5224238 13.0381125,11.5224238 C13.0671506,11.5543153 13.0961888,11.5862069 13.1252269,11.5862069 L13.2123412,11.5862069 L13.4736842,10.3424357 L13.3284936,10.3424357 L13.0671506,11.3629659 Z M13.5317604,9.64082122 L13.4736842,9.86406219 L13.6188748,9.86406219 L13.676951,9.64082122 L13.5317604,9.64082122 Z" id="形状" fill="#034582"></path>
                    <path d="M19.3256564,7.36230956 C19.4250436,7.36230956 19.5906889,7.29764236 19.656947,7.20064155 C19.6900761,7.16830796 19.7232052,7.07130716 19.7563342,7.00663995 C19.7894633,6.90963915 19.8225923,6.78030476 19.8225923,6.68330394 C19.8557214,6.61863673 19.8557214,6.55396954 19.8557214,6.48930233 C19.8888504,6.23063353 19.7894633,6.06896552 19.623818,6.06896552 C19.3587855,6.06896552 19.2593983,6.39230153 19.1600111,6.74797114 C19.1268821,6.87730554 19.093753,7.00663995 19.093753,7.10364075 C19.1600111,7.36230956 19.3256564,7.36230956 19.3256564,7.36230956 Z M14.8532334,9.916664 L14.9194915,9.6903288 L13.8593616,9.6903288 L13.7931034,9.916664 L14.6875881,9.916664 C14.8201043,9.916664 14.8532334,9.94899759 14.8532334,9.916664 Z" id="形状" fill="#107C84"></path>
                    <path d="M24.1082833,1.83018583e-15 L17.7214545,1.83018583e-15 C16.8136819,1.83018583e-15 15.9383297,0.711111116 15.7113866,1.61616162 L14.7711935,5.72121213 C14.8360344,5.75353536 14.9008753,5.81818183 14.9332958,5.91515152 C14.9981367,6.10909091 14.9657162,6.33535355 14.8684549,6.75555556 L14.803614,6.9818182 C14.7063526,7.46666667 14.6739322,7.56363637 14.6415117,7.88686868 L14.6090913,7.91919193 L14.2524663,7.91919193 L14.0579436,8.72727274 C14.1227845,8.66262627 14.2524663,8.59797982 14.3173072,8.56565657 C14.4794095,8.5010101 14.8360344,8.43636365 14.8360344,8.43636363 L15.9707502,8.43636363 L15.5817048,9.72929294 C15.5168639,9.95555556 15.452023,10.0848485 15.3871821,10.1494949 C15.3547616,10.2141414 15.2899207,10.2787879 15.1926594,10.3434343 C15.095398,10.4080808 14.9981367,10.440404 14.9332958,10.440404 L13.6364777,10.440404 L13.3446937,11.7010101 L13.7337391,11.6686869 L13.5716368,12.2505051 L13.2474323,12.2505051 L12.7287051,14.3838384 C12.5341824,15.2888889 13.0853301,16 13.9606822,16 L20.347511,16 C21.2552836,16 22.1306358,15.2888889 22.3575789,14.3838384 L25.3402604,1.61616162 C25.5347831,0.711111116 24.9836354,0 24.1082833,0 Z M19.5369997,5.65656566 C19.6666815,5.72121213 19.7639429,5.78585858 19.8287838,5.8828283 L19.8287838,5.7858586 L19.8612042,5.75353536 C20.2502496,5.68888888 20.347511,5.68888888 20.7689769,5.62424243 L20.7689769,5.65656566 C20.7041359,5.94747475 20.6068746,6.27070708 20.5420337,6.56161617 C20.3799315,7.20808081 20.347511,7.53131314 20.2826701,7.85454546 L20.2502496,7.88686868 L19.4073179,7.88686868 L19.3748975,7.85454546 C19.3748975,7.82222223 19.4073179,7.75757576 19.4073179,7.72525254 C19.2776361,7.82222223 19.1479543,7.91919193 18.9858521,7.91919193 C18.8237498,7.91919193 18.694068,7.8868687 18.5319658,7.82222223 C18.045659,7.62828284 18.1104999,7.07878789 18.1753408,6.78787878 C18.2401817,6.4969697 18.3698635,6.17373736 18.5968067,5.94747475 C18.9534316,5.65656566 19.342477,5.59191919 19.5369997,5.65656566 Z M15.1278185,7.91919193 L15.743807,5.36565657 L16.0031706,4.2020202 C16.0031706,4.2020202 16.0355911,4.10505051 16.0355911,4.07272728 C16.1652729,4.07272728 16.4246365,4.10505051 17.1378864,4.07272728 L17.39725,4.07272728 C17.9483977,4.07272728 18.402284,4.07272728 18.6616476,4.39595959 C18.7589089,4.52525251 18.7913294,4.68686868 18.7913294,4.84848485 C18.7913294,4.97777777 18.7589089,5.10707071 18.7589089,5.20404041 C18.6616476,5.62424243 18.4347044,5.97979797 18.1429204,6.20606061 C17.689034,6.56161617 17.0730455,6.56161617 16.5543183,6.56161617 L16.4894774,6.56161617 L16.4246365,6.62626264 C16.4246365,6.65858586 16.2949547,7.14343436 16.2949547,7.14343434 C16.2949547,7.14343432 16.1652729,7.82222221 16.1328524,7.95151515 C15.9707502,7.91919193 15.7113866,7.91919193 15.1278185,7.91919193 Z M15.3547616,10.8606061 C15.3223412,10.9575758 15.2899207,11.0222222 15.2250798,11.0868687 C15.1602389,11.1515152 15.0629776,11.2161616 14.8360344,11.2161616 L14.446989,11.2161616 L14.446989,11.5717172 C14.446989,11.6686869 14.4794094,11.6686869 14.4794095,11.6686869 C14.4794095,11.6686869 14.5118299,11.7010101 14.5442503,11.7010101 L14.6739322,11.7010101 L15.0629776,11.6686869 L14.8684549,12.2505051 L14.446989,12.2505051 C14.1552049,12.2505051 13.9282618,12.2505051 13.8310005,12.1858586 C13.7661595,12.1535354 13.7337391,12.0888889 13.7661595,11.9919192 L13.79858,10.6020202 L14.4794095,10.6020202 L14.4794095,10.8929293 L14.6415117,10.8929293 C14.7063526,10.8929293 14.738773,10.8929293 14.7711935,10.8606061 C14.803614,10.8282828 14.803614,10.8282828 14.803614,10.7959596 L14.8684549,10.569697 L15.4196025,10.569697 L15.3547616,10.8606061 Z M17.753875,12.2505051 L17.0082046,12.2505051 L17.0730455,12.0888889 L15.5817048,12.0888889 L15.743807,11.6040404 L15.9059093,11.6040404 L16.6840001,8.98585858 L16.8461023,8.46868688 L17.5917727,8.46868688 L17.5269318,8.72727274 C17.5269318,8.72727274 17.7214545,8.59797982 17.9159772,8.53333335 C18.0780795,8.50101012 18.8561703,8.46868688 19.1155339,8.46868688 L19.9260451,8.46868688 L19.9260451,8.75959596 C19.9260451,8.82424243 19.9584656,8.82424243 20.0557269,8.82424243 L20.1854088,8.82424243 L20.0557269,9.34141414 L19.6342611,9.34141414 C19.2452157,9.37373736 19.1155339,9.21212122 19.1155339,9.01818183 L19.1155339,8.72727274 L19.050693,8.98585858 L18.7913294,8.98585858 L18.0132386,11.5717172 L18.2077613,11.5717172 L18.045659,12.0888889 L17.8187159,12.0888889 L17.753875,12.2505051 Z M21.0931814,9.95555556 L20.2826701,9.95555556 L20.1529883,10.3757576 L20.9634996,10.3757576 L20.8338178,10.7959596 L19.9584656,10.7959596 L19.7963633,10.989899 L20.1529883,10.989899 L20.2502496,11.5393939 C20.2502496,11.6040404 20.2502496,11.6363636 20.2826701,11.6686869 C20.3150905,11.7010101 20.4123519,11.7010101 20.4771928,11.7010101 L20.5744542,11.7010101 L20.4123519,12.2505051 L19.9584656,12.2505051 C19.8612042,12.2505051 19.8287838,12.1858586 19.7639429,12.1535354 C19.699102,12.1212121 19.6342611,12.0565657 19.6342611,11.959596 L19.5369997,11.410101 L19.1479543,11.959596 C19.0182725,12.1212121 18.8561703,12.2505051 18.5643862,12.2505051 L18.0132386,12.2505051 L18.1753408,11.7656566 L18.402284,11.7656566 C18.4671249,11.7656566 18.5319658,11.7333333 18.5643862,11.7333333 C18.5968067,11.7010101 18.6292271,11.7010101 18.694068,11.6363636 L19.2776361,10.8282828 L18.4995453,10.8282828 L18.6292271,10.3757576 L19.5045793,10.3757576 L19.6342611,9.95555556 L18.7589089,9.95555556 L18.9210112,9.47070708 L21.352545,9.47070708 L21.0931814,9.95555556 Z M21.6119086,8.43636363 L21.5794881,8.46868688 L21.2552836,9.01818183 C21.1580223,9.21212122 20.9634996,9.34141416 20.6717155,9.34141414 L20.1854088,9.34141414 L20.347511,8.85656566 L20.4447724,8.85656566 C20.5096133,8.85656566 20.5420337,8.85656566 20.5744542,8.82424243 C20.6068746,8.82424243 20.6068746,8.79191921 20.6392951,8.75959596 L20.8013973,8.46868688 C21.0607609,8.08080809 21.1256018,7.91919193 21.3849654,7.4989899 C21.352545,7.01414142 21.3201245,6.85252525 21.2877041,6.56161617 C21.2552836,6.36767678 21.2228632,6.17373738 21.2228632,5.97979799 C21.1904427,5.59191921 21.1904427,5.65656566 21.1256018,5.3979798 L21.1256018,5.36565657 L21.1580223,5.33333335 C21.5470677,5.30101012 21.5470677,5.26868688 21.9685335,5.20404041 L22.000954,5.23636365 L22.0657949,6.3030303 L22.0657949,6.36767678 C22.292738,5.8828283 22.292738,6.01212122 22.5521016,5.3979798 L22.5521016,5.36565657 L22.5845221,5.33333335 C22.941147,5.30101012 23.005988,5.26868688 23.4274538,5.20404041 L23.4598742,5.23636365 C23.4274538,5.23636365 21.8388517,7.9838384 21.6119086,8.43636363 Z" id="形状" fill="#107C84"></path>
                    <path d="M14.8189655,9.20657429 L14.9094828,8.9049307 L13.8836207,8.9049307 L13.7931034,9.37415403 C13.9439655,9.27360618 14.0948276,9.20657427 14.2456897,9.20657429 L14.8189655,9.20657429 Z M16.9310345,5.65388334 C17.1422414,5.55333548 17.2931035,5.3187238 17.3232759,5.0505962 C17.3836207,4.74895264 17.2931035,4.54785693 17.112069,4.44730907 L16.5991379,4.4137931 L16.5086207,4.4137931 L16.5086207,4.51434096 L16.2672414,5.6873993 L16.2672414,5.75443119 L16.387931,5.75443119 C16.5689655,5.75443119 16.7801724,5.75443119 16.9310345,5.65388334 Z M16.3577586,11.5862069 L16.9310345,11.5862069 L17.0818966,10.9829197 L16.5086207,10.9829197 L16.3577586,11.5862069 Z M17.0818966,8.9049307 L16.9008621,9.57524977 C16.9008621,9.57524977 17.112069,9.47470191 17.2327586,9.44118594 C17.3534483,9.40767 17.5344828,9.40767 17.5344828,9.40767 L17.6551724,8.9049307 L17.0818966,8.9049307 Z M16.5991379,10.6142443 C16.5991379,10.6142443 16.8103448,10.4801805 16.9310345,10.4466645 C17.0517241,10.4131486 17.2327586,10.3796326 17.2327586,10.3796326 L17.3836207,9.87689333 L16.8103448,9.87689333 L16.5991379,10.6142443 Z" id="形状" fill="#107C84"></path>
                </g>
            </g>
        </g>
    </g>
</svg>